<?xml version="1.0" encoding="utf-8"?>
<!-- Generator: Adobe Illustrator 19.2.1, SVG Export Plug-In . SVG Version: 6.00 Build 0)  -->
<svg version="1.1" id="layer" xmlns="http://www.w3.org/2000/svg" xmlns:xlink="http://www.w3.org/1999/xlink" x="0px" y="0px"
	 viewBox="0 0 652 652" style="enable-background:new 0 0 652 652;" xml:space="preserve">
<style type="text/css">
	.st0{fill:#FFFFFF;}
	.st1{fill:#FED10A;}
	.st2{fill:#24BBB1;}
	.st3{fill:#EF5098;}
	.st4{fill:#17A8E0;}
	.st5{fill:#93C83E;}
	.st6{fill:#0779A1;}
</style>
<path class="st0" d="M227.2,326.1c0-17.3-10.7-32.5-26.9-38.3c0.7-3.7,1-7.3,1-11.1c0-32.2-26.2-58.4-58.3-58.4
	c-18.9,0-36.3,9-47.3,24.2c-5.4-4.2-12-6.5-18.9-6.5c-17.1,0-31,13.9-31,31c0,3.8,0.7,7.4,1.9,10.8c-16.1,5.8-27.1,21.2-27.1,38.4
	c0,17.4,10.8,32.6,27,38.4c-0.7,3.6-1,7.3-1,11.1c0,32.1,26.1,58.2,58.2,58.2c18.9,0,36.3-9.1,47.2-24.3c5.4,4.3,12,6.6,18.9,6.6
	c17.1,0,31-13.9,31-31c0-3.8-0.7-7.4-1.9-10.8C216.2,358.7,227.2,343.3,227.2,326.1"/>
<path class="st1" d="M101.9,306.9l45.2,20.6l45.6-40c0.7-3.3,1-6.5,1-10c0-28.1-22.9-51-51-51c-16.8,0-32.5,8.3-42,22.2L93.1,288
	L101.9,306.9z"/>
<path class="st2" d="M55.1,354.7c-0.7,3.3-1,6.7-1,10.2c0,28.2,23,51.1,51.1,51.1c16.9,0,32.7-8.4,42.2-22.3l7.5-39.2l-10-19.2
	l-45.4-20.7L55.1,354.7z"/>
<path class="st3" d="M54.9,276.5l31,7.3l6.8-35.2c-4.2-3.2-9.4-5-14.8-5c-13.4,0-24.4,10.9-24.4,24.4
	C53.4,271,53.9,273.9,54.9,276.5"/>
<path class="st4" d="M52.2,283.9c-13.8,4.5-23.5,17.8-23.5,32.4c0,14.2,8.8,26.9,22,31.9L94.1,309l-7.9-17L52.2,283.9z"/>
<path class="st5" d="M155.4,393.6c4.3,3.2,9.4,5.1,14.7,5.1c13.4,0,24.4-10.9,24.4-24.4c0-3-0.5-5.8-1.5-8.5l-30.9-7.2L155.4,393.6z
	"/>
<path class="st6" d="M161.7,350.4l34,7.9c13.9-4.5,23.5-17.8,23.5-32.5c0-14.1-8.8-26.9-22-31.9l-44.5,39L161.7,350.4z"/>
<path d="M309.4,362.7l4.1-0.4l0.3,8.4c-10.8,1.5-20.1,2.3-27.8,2.3c-10.2,0-17.5-3-21.7-8.9s-6.4-15.2-6.4-27.7
	c0-25,9.9-37.4,29.8-37.4c9.6,0,16.8,2.7,21.5,8s7.1,13.8,7.1,25.2l-0.6,8.1h-47c0,7.9,1.4,13.7,4.3,17.5s7.8,5.7,14.8,5.7
	C295,363.6,302.1,363.3,309.4,362.7z M305.6,331.9c0-8.7-1.4-14.9-4.2-18.5s-7.3-5.4-13.6-5.4c-6.3,0-11.1,1.9-14.2,5.7
	c-3.1,3.8-4.8,9.9-4.9,18.2H305.6z"/>
<path d="M331.1,371.6V269.5h10.6v102.1H331.1z"/>
<path d="M409,322v35c0,3.6,8.8,4.3,8.8,4.3l-0.5,9.4c-7.5,0-13.7,0.6-17.5-3c-8.6,3.8-17,5.3-25.6,5.3c-6.5,0-11.5-1.8-14.9-5.6
	c-3.4-3.7-5.1-9-5.1-16c0-6.9,1.7-12,5.2-15.3s9-5.3,16.5-6l22.3-2.1V322c0-4.8-1-8.3-3.1-10.4s-5-3.1-8.6-3.1h-28V299h27.3
	c8,0,13.9,1.8,17.5,5.6C407.2,308.3,409,314.1,409,322z M365.2,350.9c0,8.7,3.6,13.1,10.8,13.1c6.5,0,12.8-1,19-3.2l3.2-1.1v-23.5
	l-21,2c-4.3,0.3-7.3,1.6-9.3,3.7S365.2,347,365.2,350.9z"/>
<path d="M450.7,308.5c-10.3,0-15.5,3.6-15.5,10.8c0,3.3,1.2,5.7,3.6,7.1c2.4,1.4,7.8,2.8,16.2,4.3c8.5,1.5,14.4,3.5,17.9,6.2
	c3.5,2.6,5.2,7.6,5.2,14.9c0,7.3-2.4,12.7-7.1,16.1c-4.7,3.4-11.5,5.1-20.6,5.1c-5.8,0-25.5-2.2-25.5-2.2l0.6-9.3
	c11.3,1,19.5,1.9,25,1.9c5.5,0,9.7-0.9,12.6-2.6c2.9-1.7,4.4-4.7,4.4-8.8s-1.2-6.9-3.7-8.4c-2.4-1.5-7.9-2.9-16.2-4.2
	c-8.4-1.3-14.3-3.2-17.8-5.8c-3.5-2.5-5.2-7.3-5.2-14.2c0-6.9,2.4-12,7.3-15.4c4.9-3.3,11-5,18.2-5c5.8,0,25.8,1.5,25.8,1.5v9.3
	C465.3,309.3,456.7,308.5,450.7,308.5z"/>
<path d="M529.5,309.8h-22.6v34c0,8.1,0.6,13.5,1.7,16.1c1.2,2.5,4,3.8,8.5,3.8l12.7-0.9l0.7,8.8c-6.4,1-11.2,1.6-14.5,1.6
	c-7.4,0-12.5-1.8-15.4-5.4c-2.9-3.6-4.3-10.5-4.3-20.6v-37.4h-10.1v-9.3h10.1v-21.8h10.6v21.7h22.6V309.8z"/>
<path d="M544.4,284.4v-12.3H555v12.4L544.4,284.4L544.4,284.4z M544.4,371.6v-71.1H555v71.1H544.4z"/>
<path d="M601.3,299c3.1,0,8.5,0.6,16,1.7l3.4,0.4l-0.4,8.6c-7.6-0.9-13.2-1.3-16.8-1.3c-8,0-13.5,1.9-16.4,5.8
	c-2.9,3.8-4.4,11-4.4,21.4c0,10.4,1.3,17.6,4,21.7c2.7,4.1,8.3,6.1,16.8,6.1l16.8-1.3l0.4,8.8c-8.8,1.3-15.4,2-19.8,2
	c-11.1,0-18.8-2.9-23-8.6c-4.2-5.7-6.4-15.3-6.4-28.8c0-13.5,2.3-23,6.8-28.5C583,301.8,590.6,299,601.3,299z"/>
</svg>
